<svg width="64" height="64" viewBox="0 0 64 64" fill="none" xmlns="http://www.w3.org/2000/svg">
<rect width="64" height="64" fill="white"/>
<path d="M37.282 49.7006L43.8843 47.0003H52.0537L58.6315 49.7006C60.3898 50.6367 62 52.9094 62 57.0003H48.6078H34C34 53.3639 35.3537 50.7062 37.282 49.7006Z" fill="#1F1E1E"/>
<path d="M43.5 47.0457V47.298L43.7029 47.4479L47.7029 50.4024L47.9884 50.6133L48.2817 50.4134L52.2817 47.6861L52.5 47.5372V47.273V45.0002V44.5002H52H44H43.5V45.0002V47.0457Z" fill="white" stroke="#1F1E1E"/>
<rect x="39" y="22.0001" width="18" height="24" rx="9" fill="white" stroke="#1F1E1E"/>
<path d="M53.4192 27.4925C55.1731 29.401 56.0972 30.1887 56.9504 30.9554C56.9695 30.9726 57 30.96 56.9998 30.9342C56.9911 29.4741 56.685 26.7247 54.643 24.6724C51.5859 21.5999 46.4625 21.1065 42.5941 23.5584C39.0934 25.7772 38.9295 28.8115 39.0152 30.5839C39.0158 30.5983 39.0264 30.6096 39.0407 30.6114C43.2101 31.1122 50.4198 29.0836 53.3836 27.4858C53.3956 27.4793 53.41 27.4824 53.4192 27.4925Z" fill="#47BFC7"/>
<rect x="39" y="22.0001" width="18" height="24" rx="9" stroke="#1F1E1E"/>
<path d="M6.04142 47.3732L6.02078 47.3811L6.00092 47.3907C3.28698 48.7117 1.49995 52.1264 1.5 56.6L1.50001 57.1H2H20.7815H38H38.5V56.6C38.5 51.5388 36.3537 48.6159 33.8916 47.3925L33.8702 47.3819L33.848 47.3734L25.3908 44.1331L25.3044 44.1H25.2119H14.7083H14.6162L14.53 44.1329L6.04142 47.3732Z" fill="#1F1E1E" stroke="white"/>
<path d="M14.5 44.4548V44.7132L14.7108 44.8627L19.7108 48.4081L19.9887 48.6052L20.2738 48.4186L25.2738 45.1459L25.5 44.9978V44.7275V42.0002V41.5002H25H15H14.5V42.0002V44.4548Z" fill="white" stroke="#1F1E1E"/>
<rect x="9" y="11" width="22" height="32" rx="11" fill="white" stroke="#1F1E1E"/>
<path d="M26.621 18.9302C28.7726 21.6975 29.9028 22.8343 30.9486 23.9453C30.9671 23.965 31 23.9532 30.9999 23.9262C30.9916 21.8227 30.6234 17.8345 28.1192 14.8601C24.3828 10.4221 18.1209 9.70933 13.3928 13.2509C9.10781 16.4605 8.91327 20.8517 9.01898 23.4101C9.01957 23.4244 9.0298 23.4357 9.04396 23.4377C14.1398 24.1643 22.9593 21.2317 26.5819 18.9226C26.5948 18.9143 26.6115 18.9181 26.621 18.9302Z" fill="#47BFC7"/>
<rect x="9" y="11" width="22" height="32" rx="11" stroke="#1F1E1E"/>
<path fill-rule="evenodd" clip-rule="evenodd" d="M21.9021 50.3821L20 49.0002L18.0979 50.3821L18.6535 52.0921L18 56.6403L22 56.6403L21.3465 52.0921L21.9021 50.3821Z" fill="white"/>
<path fill-rule="evenodd" clip-rule="evenodd" d="M49.9021 52.2821L48 50.9001L46.0979 52.2821L46.5439 53.6548L46 57.0002L50 57.0003L49.4561 53.6548L49.9021 52.2821Z" fill="white"/>
</svg>
