<svg width="64" height="64" viewBox="0 0 64 64" fill="none" xmlns="http://www.w3.org/2000/svg">
<rect width="64" height="64" fill="white"/>
<path d="M14 10.1959C14 9.53544 14.5354 9 15.1959 9H51.8041C52.4646 9 53 9.53544 53 10.1959V55.8041C53 56.4646 52.4646 57 51.8041 57H15.1959C14.5354 57 14 56.4646 14 55.8041V10.1959Z" fill="#141212"/>
<path d="M14 10.1959C14 9.53544 14.5354 9 15.1959 9H51.8041C52.4646 9 53 9.53544 53 10.1959V55.8041C53 56.4646 52.4646 57 51.8041 57H15.1959C14.5354 57 14 56.4646 14 55.8041V10.1959Z" stroke="#141212"/>
<path d="M13 8.19594C13 7.53544 13.5354 7 14.1959 7H49.8041C50.4646 7 51 7.53544 51 8.19595V53.8041C51 54.4646 50.4646 55 49.8041 55H14.1959C13.5354 55 13 54.4646 13 53.8041V8.19594Z" fill="#0099A3"/>
<path d="M13 8.19594C13 7.53544 13.5354 7 14.1959 7H49.8041C50.4646 7 51 7.53544 51 8.19595V53.8041C51 54.4646 50.4646 55 49.8041 55H14.1959C13.5354 55 13 54.4646 13 53.8041V8.19594Z" stroke="#0099A3"/>
<path d="M18 21C18 20.4477 18.4477 20 19 20H45C45.5523 20 46 20.4477 46 21C46 21.5523 45.5523 22 45 22H19C18.4477 22 18 21.5523 18 21Z" fill="white"/>
<path d="M18 27C18 26.4477 18.4477 26 19 26H45C45.5523 26 46 26.4477 46 27C46 27.5523 45.5523 28 45 28H19C18.4477 28 18 27.5523 18 27Z" fill="white"/>
<path d="M18 33C18 32.4477 18.4477 32 19 32H45C45.5523 32 46 32.4477 46 33C46 33.5523 45.5523 34 45 34H19C18.4477 34 18 33.5523 18 33Z" fill="white"/>
<path d="M43 50C44.6569 50 46 48.6569 46 47C46 45.3431 44.6569 44 43 44C41.3431 44 40 45.3431 40 47C40 48.6569 41.3431 50 43 50Z" fill="white"/>
</svg>
