<svg width="64" height="64" viewBox="0 0 64 64" fill="none" xmlns="http://www.w3.org/2000/svg">
<rect width="64" height="64" fill="white"/>
<path d="M15.8582 49.4154L25.6313 45.6848H37.7241L47.4609 49.4154C50.0637 50.7087 52.4472 53.8486 52.4472 59.5005H32.6233H11C11 54.4766 13.0039 50.8047 15.8582 49.4154Z" fill="#1F1E1E"/>
<path d="M25.5717 46.2552V46.4978L25.7622 46.648L31.4141 51.101L31.7115 51.3352L32.0177 51.1126L37.6695 47.0021L37.8755 46.8524V46.5977V43.1724V42.6724H37.3755H26.0717H25.5717V43.1724V46.2552Z" fill="white" stroke="#1F1E1E"/>
<rect x="19.2236" y="7.5" width="25" height="36.8421" rx="12.5" fill="white" stroke="#1F1E1E"/>
<path d="M39.245 16.3261C41.6966 19.4156 42.9816 20.6806 44.1724 21.9203C44.191 21.9397 44.2236 21.9279 44.2235 21.9011C44.2152 19.5617 43.7995 15.1138 40.95 11.7977C36.7041 6.85654 29.5882 6.06302 24.2154 10.006C19.3446 13.5807 19.1249 18.4716 19.2453 21.3196C19.2459 21.3339 19.2562 21.3452 19.2703 21.3472C25.0622 22.158 35.0911 18.8902 39.2063 16.3186C39.2192 16.3106 39.2356 16.3143 39.245 16.3261Z" fill="#47BFC7"/>
<rect x="19.2236" y="7.5" width="25" height="36.8421" rx="12.5" stroke="#1F1E1E"/>
<path fill-rule="evenodd" clip-rule="evenodd" d="M31.7236 5C23.4393 5 16.7236 11.7157 16.7236 20V22.5H14.2236C13.119 22.5 12.2236 23.3954 12.2236 24.5V30.5C12.2236 31.6046 13.119 32.5 14.2236 32.5H17.7236V27.5V27V22.5V20C17.7236 12.268 23.9916 6 31.7236 6C39.4556 6 45.7236 12.268 45.7236 20V22.5V27V27.5V32.5L45.7236 37.0239H37.4318V38.0239H46.1939C46.4864 38.0239 46.7236 37.7867 46.7236 37.4942V32.5H49.2236C50.3282 32.5 51.2236 31.6046 51.2236 30.5V24.5C51.2236 23.3954 50.3282 22.5 49.2236 22.5H46.7236V20C46.7236 11.7157 40.0079 5 31.7236 5Z" fill="#1F1E1E"/>
</svg>
