<svg width="32" height="32" viewBox="0 0 32 32" fill="none" xmlns="http://www.w3.org/2000/svg">
<path d="M18.6331 18.9C16.4331 21.17 16.2731 24 16.0831 30.2C21.8631 30.2 25.8531 30.18 27.9131 28.18C29.9131 26.12 29.9331 21.94 29.9331 16.35C23.7331 16.55 20.9031 16.7 18.6331 18.9ZM1.93311 16.35C1.93311 21.94 1.95311 26.12 3.95311 28.18C6.01311 30.18 10.0031 30.2 15.7831 30.2C15.5831 24 15.4331 21.17 13.2331 18.9C10.9631 16.7 8.13311 16.54 1.93311 16.35ZM15.7831 2.19995C10.0131 2.19995 6.01311 2.21995 3.95311 4.21995C1.95311 6.27995 1.93311 10.46 1.93311 16.05C8.13311 15.85 10.9631 15.7 13.2331 13.5C15.4331 11.23 15.5931 8.39995 15.7831 2.19995ZM18.6331 13.5C16.4331 11.23 16.2731 8.39995 16.0831 2.19995C21.8631 2.19995 25.8531 2.21995 27.9131 4.21995C29.9131 6.27995 29.9331 10.46 29.9331 16.05C23.7331 15.85 20.9031 15.7 18.6331 13.5Z" fill="#0099A3"/>
<path d="M29.9331 16.35V16.05C23.7331 15.85 20.9031 15.7 18.6331 13.5C16.4331 11.23 16.2731 8.39995 16.0831 2.19995H15.7831C15.5831 8.39995 15.4331 11.23 13.2331 13.5C10.9631 15.7 8.13311 15.86 1.93311 16.05V16.35C8.13311 16.55 10.9631 16.7 13.2331 18.9C15.4331 21.17 15.5931 24 15.7831 30.2H16.0831C16.2831 24 16.4331 21.17 18.6331 18.9C20.9031 16.7 23.7331 16.54 29.9331 16.35Z" fill="white"/>
</svg>
