<svg width="32" height="32" viewBox="0 0 32 32" fill="none" xmlns="http://www.w3.org/2000/svg">
<path d="M2.4668 15.64C2.4668 9.30425 2.4668 6.13644 4.43504 4.16819C6.40328 2.19995 9.5711 2.19995 15.9068 2.19995H17.0268C23.3625 2.19995 26.5303 2.19995 28.4986 4.16819C30.4668 6.13644 30.4668 9.30425 30.4668 15.64V16.7599C30.4668 23.0956 30.4668 26.2634 28.4986 28.2317C26.5303 30.2 23.3625 30.2 17.0268 30.2H15.9068C9.5711 30.2 6.40328 30.2 4.43504 28.2317C2.4668 26.2634 2.4668 23.0956 2.4668 16.7599V15.64Z" fill="#0099A3"/>
<path d="M17.7867 22.44C11.5138 22.44 7.93589 18.1832 7.7868 11.1H10.929C11.0322 16.2989 13.3486 18.5011 15.1835 18.9551V11.1H18.1423V15.5838C19.9542 15.3908 21.8577 13.3475 22.4999 11.1H25.4586C24.9655 13.8697 22.9013 15.9129 21.4334 16.7529C22.9013 17.434 25.2523 19.2162 26.1468 22.44H22.8898C22.1903 20.2832 20.4473 18.6146 18.1423 18.3875V22.44H17.7867Z" fill="white"/>
</svg>
