<svg width="30" height="26" viewBox="0 0 30 26" fill="none" xmlns="http://www.w3.org/2000/svg">
<path d="M18.736 2.61617L19.2831 1.32183C19.3443 1.17734 19.3689 1.01978 19.3546 0.863428C19.3403 0.707075 19.2876 0.556732 19.2011 0.425783C19.1147 0.294835 18.9973 0.187448 18.8593 0.113158C18.7213 0.0387881 18.5671 -8.00163e-05 18.4105 1.23676e-07H9.8153C9.67626 1.23676e-07 9.53954 0.0355823 9.41805 0.103461C9.29664 0.171339 9.19454 0.26919 9.12145 0.387797C9.04845 0.506404 9.00685 0.641761 9.00068 0.780964C8.99451 0.920167 9.02392 1.05873 9.08627 1.18335L13.71 10.4497C13.7761 10.582 13.8779 10.693 14.0041 10.7698C14.1301 10.8466 14.2753 10.8862 14.4228 10.884C14.5703 10.8817 14.7143 10.8378 14.838 10.7573C14.9617 10.6766 15.0603 10.5627 15.1223 10.4285L18.736 2.61617Z" fill="#141212"/>
<path d="M25.5511 6.42743L25.0384 5.52858C25.0383 5.52706 25.0383 5.52545 25.0384 5.52385C25.0225 5.49676 25.0051 5.46903 24.9877 5.44195C24.9704 5.41486 24.9624 5.40476 24.949 5.38649C24.8671 5.28447 24.7611 5.20529 24.6408 5.15633C24.5205 5.10736 24.3898 5.09029 24.2612 5.10656C24.1326 5.12291 24.0101 5.17212 23.9054 5.24961C23.8006 5.32711 23.7171 5.43033 23.6626 5.54957L22.3468 8.37459L14.8508 24.6693C14.7925 24.7955 14.7665 24.9345 14.7754 25.0736C14.7842 25.2127 14.8275 25.3473 14.9012 25.4648C14.975 25.5824 15.0768 25.6792 15.1973 25.7462C15.3178 25.8133 15.453 25.8484 15.5905 25.8483H21.0337C21.3156 25.8485 21.5926 25.7736 21.8369 25.631C22.0812 25.4886 22.2842 25.2834 22.4256 25.0362L28.8229 13.8012C28.9639 13.5536 29.0381 13.2726 29.0381 12.9866C29.0381 12.7007 28.9639 12.4197 28.8229 12.1721L25.5511 6.42743Z" fill="#141212"/>
<path d="M9.98488 21.5025L11.1467 18.8183C11.1697 18.7647 11.1955 18.7132 11.2206 18.6609C11.3368 18.4153 11.39 18.1445 11.3752 17.8732C11.3604 17.6018 11.2782 17.3385 11.1358 17.1069L9.9158 14.7265L5.18441 5.8343C5.12158 5.7177 5.02886 5.62001 4.91579 5.55109C4.80271 5.48225 4.67328 5.44474 4.54097 5.4425C4.40858 5.44017 4.27795 5.47319 4.16255 5.53818C4.04715 5.6031 3.95114 5.69758 3.88438 5.81194L0.218624 12.1622C0.0754139 12.4104 0 12.692 0 12.9785C0 13.2651 0.0754139 13.5467 0.218624 13.7948L6.71701 25.0499C6.71925 25.0545 6.72174 25.0591 6.72446 25.0634C7.10136 25.7015 8.04629 25.6425 8.36012 24.9705L9.98488 21.5025Z" fill="#141212"/>
</svg>
