<svg width="32" height="32" viewBox="0 0 32 32" fill="none" xmlns="http://www.w3.org/2000/svg">
<circle cx="16" cy="16.2" r="13.7109" fill="#0099A3" stroke="#0099A3" stroke-width="0.578158"/>
<path d="M7.21284 15.4481C12.7518 13.0088 19.9193 10.0349 20.909 9.62322C23.5042 8.54597 24.3006 8.75222 23.9036 11.1383C23.6183 12.8534 22.7958 18.5307 22.1396 22.0646C21.7506 24.1604 20.8773 24.4087 19.5048 23.502C18.8448 23.0657 15.5126 20.8597 14.7892 20.3417C14.1291 19.8697 13.2186 19.3017 14.3605 18.1832C14.767 17.785 17.4303 15.2387 19.5056 13.2571C19.7774 12.9969 19.4359 12.5694 19.1221 12.778C16.3249 14.635 12.4468 17.2123 11.9531 17.5478C11.2074 18.0547 10.4911 18.2872 9.20577 17.9175C8.23427 17.6383 7.28574 17.3051 6.91647 17.1782C5.49408 16.6895 5.83165 16.0565 7.21284 15.4481Z" fill="white"/>
</svg>
