<svg width="32" height="32" viewBox="0 0 32 32" fill="none" xmlns="http://www.w3.org/2000/svg">
<g clip-path="url(#clip0_4003_144)">
<path d="M2.3999 15.64C2.3999 9.30425 2.3999 6.13644 4.36814 4.16819C6.33639 2.19995 9.5042 2.19995 15.8399 2.19995H16.9599C23.2956 2.19995 26.4634 2.19995 28.4317 4.16819C30.3999 6.13644 30.3999 9.30425 30.3999 15.64V16.7599C30.3999 23.0956 30.3999 26.2634 28.4317 28.2317C26.4634 30.2 23.2956 30.2 16.9599 30.2H15.8399C9.5042 30.2 6.33639 30.2 4.36814 28.2317C2.3999 26.2634 2.3999 23.0956 2.3999 16.7599V15.64Z" fill="#0099A3"/>
</g>
<path d="M14.5999 18.5726V13.4274L19.2799 16L14.5999 18.5726Z" fill="#0099A3"/>
<path d="M25.0202 11.8735C24.9177 11.511 24.7172 11.1806 24.4385 10.9152C24.1599 10.6498 23.8129 10.4588 23.4324 10.3612C22.031 10 16.3999 10 16.3999 10C16.3999 10 10.7688 10 9.36742 10.3612C8.9869 10.4588 8.63995 10.6498 8.3613 10.9152C8.08265 11.1806 7.88208 11.511 7.77965 11.8735C7.51799 13.2347 7.39101 14.6162 7.40039 16C7.39101 17.3838 7.51799 18.7653 7.77965 20.1265C7.88208 20.489 8.08265 20.8194 8.3613 21.0848C8.63995 21.3502 8.9869 21.5412 9.36742 21.6388C10.7688 22 16.3999 22 16.3999 22C16.3999 22 22.031 22 23.4324 21.6388C23.8129 21.5412 24.1599 21.3502 24.4385 21.0848C24.7172 20.8194 24.9177 20.489 25.0202 20.1265C25.2818 18.7653 25.4088 17.3838 25.3994 16C25.4088 14.6162 25.2818 13.2347 25.0202 11.8735ZM14.6 18.5714V13.4286L19.2733 16L14.6 18.5714Z" fill="white"/>
<defs>
<clipPath id="clip0_4003_144">
<rect width="28" height="28" fill="white" transform="translate(2.3999 2.19995)"/>
</clipPath>
</defs>
</svg>
